<svg width="27" height="27" viewBox="0 0 27 27" fill="none" xmlns="http://www.w3.org/2000/svg">
<path d="M14.625 3.375C14.625 3.07663 14.5065 2.79048 14.2955 2.5795C14.0845 2.36853 13.7984 2.25 13.5 2.25C13.2017 2.25 12.9155 2.36853 12.7045 2.5795C12.4936 2.79048 12.375 3.07663 12.375 3.375V4.45725L11.6393 4.068C11.5087 3.99893 11.3658 3.95627 11.2187 3.94243C11.0716 3.9286 10.9232 3.94388 10.782 3.98739C10.6408 4.0309 10.5096 4.10179 10.3958 4.19602C10.282 4.29025 10.1879 4.40596 10.1188 4.53656C10.0498 4.66716 10.0071 4.81009 9.99327 4.95718C9.97944 5.10426 9.99472 5.25264 10.0382 5.39382C10.0817 5.53501 10.1526 5.66624 10.2469 5.78003C10.3411 5.89382 10.4568 5.98793 10.5874 6.057L12.375 7.002V9.14175C11.5831 9.3467 10.862 9.76364 10.2893 10.3477L8.43528 9.27675L8.51065 7.25625C8.52169 6.95803 8.41381 6.66764 8.21074 6.44896C8.00768 6.23028 7.72606 6.10123 7.42784 6.09019C7.12962 6.07915 6.83923 6.18703 6.62055 6.39009C6.40187 6.59316 6.27281 6.87478 6.26177 7.173L6.2314 8.00437L5.29427 7.46438C5.16621 7.38515 5.02354 7.33243 4.87472 7.30937C4.72591 7.2863 4.57397 7.29334 4.42793 7.33008C4.28189 7.36682 4.14471 7.43251 4.02452 7.52325C3.90434 7.61399 3.80359 7.72793 3.72826 7.85833C3.65293 7.98873 3.60455 8.13293 3.58598 8.28237C3.56741 8.43181 3.57903 8.58346 3.62016 8.72833C3.66129 8.8732 3.73108 9.00834 3.82541 9.12573C3.91973 9.24312 4.03666 9.34039 4.16927 9.41175L5.1064 9.95288L4.40102 10.3961C4.155 10.5578 3.98216 10.8095 3.91959 11.0972C3.85703 11.3849 3.90973 11.6856 4.06639 11.9349C4.22305 12.1842 4.47117 12.3621 4.75752 12.4305C5.04387 12.4989 5.34562 12.4523 5.59802 12.3007L7.31027 11.2252L9.16315 12.2951C8.94408 13.0834 8.94408 13.9166 9.16315 14.7049L7.31027 15.7736L5.59802 14.6993C5.34562 14.5477 5.04387 14.5011 4.75752 14.5695C4.47117 14.6379 4.22305 14.8158 4.06639 15.0651C3.90973 15.3144 3.85703 15.6151 3.91959 15.9028C3.98216 16.1905 4.155 16.4422 4.40102 16.6039L5.1064 17.0471L4.16927 17.5871C4.04126 17.661 3.92905 17.7594 3.83905 17.8766C3.74905 17.9938 3.68302 18.1276 3.64473 18.2704C3.60644 18.4131 3.59665 18.562 3.61591 18.7086C3.63516 18.8551 3.68309 18.9964 3.75696 19.1244C3.83083 19.2525 3.92919 19.3647 4.04642 19.4547C4.16366 19.5447 4.29747 19.6107 4.44023 19.649C4.58298 19.6873 4.73187 19.6971 4.87841 19.6778C5.02495 19.6585 5.16626 19.6106 5.29427 19.5367L6.23027 18.9956L6.26177 19.8281C6.26731 19.9758 6.30189 20.1209 6.36351 20.2552C6.42514 20.3895 6.51261 20.5104 6.62095 20.6109C6.72928 20.7114 6.85634 20.7895 6.99488 20.8409C7.13343 20.8923 7.28074 20.9159 7.4284 20.9104C7.57606 20.9048 7.72119 20.8703 7.85549 20.8086C7.98979 20.747 8.11064 20.6595 8.21114 20.5512C8.31164 20.4429 8.38981 20.3158 8.4412 20.1773C8.49259 20.0387 8.51619 19.8914 8.51065 19.7437L8.43528 17.7232L10.2893 16.6523C10.862 17.2364 11.5831 17.6533 12.375 17.8582V19.998L10.5874 20.943C10.3236 21.0825 10.1261 21.321 10.0382 21.6062C9.95035 21.8913 9.97935 22.1997 10.1188 22.4634C10.2583 22.7272 10.4969 22.9247 10.782 23.0126C11.0672 23.1005 11.3755 23.0715 11.6393 22.932L12.375 22.5427V23.625C12.375 23.9234 12.4936 24.2095 12.7045 24.4205C12.9155 24.6315 13.2017 24.75 13.5 24.75C13.7984 24.75 14.0845 24.6315 14.2955 24.4205C14.5065 24.2095 14.625 23.9234 14.625 23.625V22.5427L15.3608 22.932C15.6245 23.0715 15.9329 23.1005 16.218 23.0126C16.5032 22.9247 16.7417 22.7272 16.8812 22.4634C17.0207 22.1997 17.0497 21.8913 16.9618 21.6062C16.874 21.321 16.6764 21.0825 16.4126 20.943L14.625 19.998V17.8582C15.4168 17.6536 16.1379 17.2371 16.7108 16.6534L18.5648 17.7232L18.4894 19.7437C18.4839 19.8914 18.5075 20.0387 18.5588 20.1773C18.6102 20.3158 18.6884 20.4429 18.7889 20.5512C18.8894 20.6595 19.0103 20.747 19.1446 20.8086C19.2789 20.8703 19.424 20.9048 19.5716 20.9104C19.7193 20.9159 19.8666 20.8923 20.0052 20.8409C20.1437 20.7895 20.2708 20.7114 20.3791 20.6109C20.4874 20.5104 20.5749 20.3895 20.6365 20.2552C20.6982 20.1209 20.7327 19.9758 20.7383 19.8281L20.7687 18.9956L21.7058 19.5367C21.8338 19.6118 21.9753 19.6608 22.1223 19.6809C22.2693 19.701 22.4189 19.6918 22.5623 19.6539C22.7057 19.6159 22.8402 19.55 22.9581 19.4599C23.076 19.3698 23.1748 19.2572 23.249 19.1287C23.3232 19.0003 23.3712 18.8584 23.3904 18.7112C23.4095 18.5641 23.3993 18.4147 23.3604 18.2715C23.3216 18.1283 23.2548 17.9942 23.1639 17.877C23.0729 17.7597 22.9598 17.6616 22.8308 17.5883L21.8948 17.0483L22.599 16.605C22.8517 16.4463 23.0311 16.1936 23.0975 15.9027C23.164 15.6118 23.1121 15.3063 22.9534 15.0536C22.7947 14.8009 22.542 14.6216 22.2511 14.5551C21.9602 14.4887 21.6547 14.5405 21.402 14.6993L19.6898 15.7748L17.8369 14.706C18.0562 13.9173 18.0562 13.0838 17.8369 12.2951L19.6898 11.2252L21.402 12.3007C21.6547 12.4595 21.9602 12.5113 22.2511 12.4449C22.542 12.3784 22.7947 12.1991 22.9534 11.9464C23.1121 11.6937 23.164 11.3882 23.0975 11.0973C23.0311 10.8064 22.8517 10.5537 22.599 10.395L21.8937 9.95288L22.8308 9.41175C22.9598 9.33842 23.0729 9.2403 23.1639 9.12305C23.2548 9.00579 23.3216 8.87171 23.3604 8.72853C23.3993 8.58535 23.4095 8.43589 23.3904 8.28876C23.3712 8.14163 23.3232 7.99974 23.249 7.87126C23.1748 7.74277 23.076 7.63023 22.9581 7.5401C22.8402 7.44998 22.7057 7.38406 22.5623 7.34614C22.4189 7.30822 22.2693 7.29904 22.1223 7.31914C21.9753 7.33924 21.8338 7.38822 21.7058 7.46325L20.7687 8.00325L20.7383 7.17188C20.7327 7.02421 20.6982 6.87909 20.6365 6.74478C20.5749 6.61048 20.4874 6.48963 20.3791 6.38913C20.2708 6.28864 20.1437 6.21046 20.0052 6.15907C19.8666 6.10768 19.7193 6.08408 19.5716 6.08963C19.424 6.09517 19.2789 6.12974 19.1446 6.19136C19.0103 6.25299 18.8894 6.34046 18.7889 6.4488C18.6884 6.55713 18.6102 6.68419 18.5588 6.82273C18.5075 6.96128 18.4839 7.10859 18.4894 7.25625L18.5648 9.27675L16.7108 10.3466C16.1379 9.76293 15.4168 9.34638 14.625 9.14175V7.002L16.4126 6.057C16.6764 5.91751 16.874 5.67896 16.9618 5.39382C17.0497 5.10869 17.0207 4.80032 16.8812 4.53656C16.7417 4.2728 16.5032 4.07526 16.218 3.98739C15.9329 3.89952 15.6245 3.92851 15.3608 4.068L14.625 4.45725V3.375Z" fill="#509EC3"/>
</svg>
