<svg width="24" height="24" viewBox="0 0 24 24" fill="none" xmlns="http://www.w3.org/2000/svg">
<path d="M13 3C13 2.73478 12.8946 2.48043 12.7071 2.29289C12.5196 2.10536 12.2652 2 12 2C11.7348 2 11.4804 2.10536 11.2929 2.29289C11.1054 2.48043 11 2.73478 11 3V3.962L10.346 3.616C10.2299 3.55461 10.1029 3.51668 9.97212 3.50439C9.84138 3.49209 9.70949 3.50567 9.58399 3.54435C9.4585 3.58302 9.34184 3.64604 9.2407 3.72979C9.13955 3.81355 9.0559 3.91641 8.9945 4.0325C8.93311 4.14859 8.89518 4.27563 8.88289 4.40638C8.87059 4.53712 8.88417 4.66901 8.92285 4.79451C8.96152 4.92001 9.02454 5.03666 9.1083 5.1378C9.19206 5.23895 9.29492 5.32261 9.411 5.384L11 6.224V8.126C10.2961 8.30818 9.65508 8.67879 9.146 9.198L7.498 8.246L7.565 6.45C7.57482 6.18492 7.47892 5.92679 7.29842 5.73241C7.11792 5.53803 6.86759 5.42331 6.6025 5.4135C6.33742 5.40369 6.07929 5.49958 5.88491 5.68008C5.69053 5.86059 5.57582 6.11092 5.566 6.376L5.539 7.115L4.706 6.635C4.59217 6.56457 4.46535 6.51772 4.33307 6.49721C4.20079 6.47671 4.06574 6.48297 3.93592 6.51563C3.8061 6.54829 3.68417 6.60667 3.57733 6.68733C3.4705 6.76799 3.38095 6.86928 3.31399 6.98518C3.24703 7.10109 3.20402 7.22927 3.18752 7.36211C3.17101 7.49495 3.18134 7.62975 3.2179 7.75852C3.25446 7.88729 3.3165 8.00741 3.40034 8.11176C3.48419 8.21611 3.58813 8.30257 3.706 8.366L4.539 8.847L3.912 9.241C3.69331 9.38473 3.53968 9.60846 3.48406 9.86417C3.42845 10.1199 3.4753 10.3872 3.61455 10.6088C3.7538 10.8304 3.97436 10.9885 4.22889 11.0493C4.48342 11.1101 4.75165 11.0687 4.976 10.934L6.498 9.978L8.145 10.929C7.95028 11.6297 7.95028 12.3703 8.145 13.071L6.498 14.021L4.976 13.066C4.75165 12.9313 4.48342 12.8899 4.22889 12.9507C3.97436 13.0115 3.7538 13.1696 3.61455 13.3912C3.4753 13.6128 3.42845 13.8801 3.48406 14.1358C3.53968 14.3915 3.69331 14.6153 3.912 14.759L4.539 15.153L3.706 15.633C3.59221 15.6987 3.49247 15.7861 3.41247 15.8903C3.33247 15.9945 3.27377 16.1135 3.23974 16.2403C3.20571 16.3672 3.197 16.4996 3.21412 16.6298C3.23124 16.7601 3.27384 16.8857 3.3395 16.9995C3.40516 17.1133 3.49259 17.213 3.5968 17.293C3.70101 17.373 3.81996 17.4317 3.94685 17.4658C4.07374 17.4998 4.20609 17.5085 4.33635 17.4914C4.4666 17.4743 4.59221 17.4317 4.706 17.366L5.538 16.885L5.566 17.625C5.57093 17.7563 5.60166 17.8853 5.65644 18.0046C5.71122 18.124 5.78897 18.2314 5.88527 18.3208C5.98156 18.4101 6.09451 18.4796 6.21766 18.5253C6.34081 18.5709 6.47175 18.5919 6.603 18.587C6.73426 18.5821 6.86326 18.5513 6.98264 18.4966C7.10202 18.4418 7.20944 18.364 7.29877 18.2677C7.3881 18.1714 7.45759 18.0585 7.50327 17.9353C7.54895 17.8122 7.56993 17.6813 7.565 17.55L7.498 15.754L9.146 14.802C9.65508 15.3212 10.2961 15.6918 11 15.874V17.776L9.411 18.616C9.17655 18.74 9.00096 18.952 8.92285 19.2055C8.84474 19.4589 8.87051 19.733 8.9945 19.9675C9.11849 20.202 9.33054 20.3775 9.58399 20.4557C9.83745 20.5338 10.1116 20.508 10.346 20.384L11 20.038V21C11 21.2652 11.1054 21.5196 11.2929 21.7071C11.4804 21.8946 11.7348 22 12 22C12.2652 22 12.5196 21.8946 12.7071 21.7071C12.8946 21.5196 13 21.2652 13 21V20.038L13.654 20.384C13.8885 20.508 14.1626 20.5338 14.416 20.4557C14.6695 20.3775 14.8815 20.202 15.0055 19.9675C15.1295 19.733 15.1553 19.4589 15.0772 19.2055C14.999 18.952 14.8235 18.74 14.589 18.616L13 17.776V15.874C13.7038 15.6921 14.3448 15.3218 14.854 14.803L16.502 15.754L16.435 17.55C16.4301 17.6813 16.4511 17.8122 16.4967 17.9353C16.5424 18.0585 16.6119 18.1714 16.7012 18.2677C16.7906 18.364 16.898 18.4418 17.0174 18.4966C17.1367 18.5513 17.2657 18.5821 17.397 18.587C17.5283 18.5919 17.6592 18.5709 17.7823 18.5253C17.9055 18.4796 18.0184 18.4101 18.1147 18.3208C18.211 18.2314 18.2888 18.124 18.3436 18.0046C18.3983 17.8853 18.4291 17.7563 18.434 17.625L18.461 16.885L19.294 17.366C19.4078 17.4327 19.5336 17.4762 19.6643 17.4941C19.7949 17.512 19.9279 17.5038 20.0553 17.4701C20.1828 17.4364 20.3024 17.3778 20.4072 17.2977C20.5119 17.2176 20.5998 17.1175 20.6658 17.0033C20.7317 16.8891 20.7744 16.763 20.7914 16.6322C20.8084 16.5014 20.7994 16.3686 20.7648 16.2413C20.7303 16.114 20.6709 15.9949 20.5901 15.8906C20.5093 15.7864 20.4086 15.6992 20.294 15.634L19.462 15.154L20.088 14.76C20.3126 14.6189 20.472 14.3944 20.5311 14.1357C20.5902 13.8771 20.5441 13.6056 20.403 13.381C20.2619 13.1564 20.0374 12.997 19.7787 12.9379C19.5201 12.8788 19.2486 12.9249 19.024 13.066L17.502 14.022L15.855 13.072C16.0499 12.371 16.0499 11.63 15.855 10.929L17.502 9.978L19.024 10.934C19.2486 11.0751 19.5201 11.1212 19.7787 11.0621C20.0374 11.003 20.2619 10.8436 20.403 10.619C20.5441 10.3944 20.5902 10.1229 20.5311 9.86426C20.472 9.60565 20.3126 9.38109 20.088 9.24L19.461 8.847L20.294 8.366C20.4086 8.30082 20.5093 8.2136 20.5901 8.10937C20.6709 8.00515 20.7303 7.88597 20.7648 7.75869C20.7994 7.63142 20.8084 7.49857 20.7914 7.36779C20.7744 7.23701 20.7317 7.11088 20.6658 6.99667C20.5998 6.88246 20.5119 6.78242 20.4072 6.70231C20.3024 6.62221 20.1828 6.56361 20.0553 6.5299C19.9279 6.49619 19.7949 6.48804 19.6643 6.5059C19.5336 6.52377 19.4078 6.5673 19.294 6.634L18.461 7.114L18.434 6.375C18.4291 6.24374 18.3983 6.11474 18.3436 5.99536C18.2888 5.87598 18.211 5.76856 18.1147 5.67923C18.0184 5.5899 17.9055 5.52041 17.7823 5.47473C17.6592 5.42905 17.5283 5.40808 17.397 5.413C17.2657 5.41792 17.1367 5.44865 17.0174 5.50343C16.898 5.55821 16.7906 5.63597 16.7012 5.73226C16.6119 5.82856 16.5424 5.9415 16.4967 6.06465C16.4511 6.1878 16.4301 6.31874 16.435 6.45L16.502 8.246L14.854 9.197C14.3448 8.67816 13.7038 8.30789 13 8.126V6.224L14.589 5.384C14.8235 5.26001 14.999 5.04797 15.0772 4.79451C15.1553 4.54105 15.1295 4.26695 15.0055 4.0325C14.8815 3.79805 14.6695 3.62245 14.416 3.54435C14.1626 3.46624 13.8885 3.49201 13.654 3.616L13 3.962V3Z" fill="white"/>
</svg>
