<svg width="523" height="594" viewBox="0 0 523 594" fill="none" xmlns="http://www.w3.org/2000/svg">
<path d="M291.33 29.6667C291.33 21.7986 288.205 14.2527 282.641 8.68916C277.077 3.12558 269.532 0 261.663 0C253.795 0 246.25 3.12558 240.686 8.68916C235.122 14.2527 231.997 21.7986 231.997 29.6667V58.206L212.595 47.9413C209.151 46.12 205.382 44.9949 201.503 44.6301C197.624 44.2654 193.712 44.6682 189.989 45.8156C186.265 46.9629 182.805 48.8324 179.804 51.3172C176.803 53.802 174.322 56.8535 172.5 60.2975C170.679 63.7415 169.554 67.5104 169.189 71.3892C168.824 75.268 169.227 79.1807 170.375 82.9038C171.522 86.6269 173.391 90.0876 175.876 93.0882C178.361 96.0888 181.413 98.5707 184.856 100.392L231.997 125.312V181.738C211.113 187.143 192.097 198.138 176.995 213.541L128.104 185.298L130.092 132.017C130.383 124.153 127.538 116.495 122.183 110.728C116.828 104.962 109.402 101.558 101.538 101.267C93.6735 100.976 86.0158 103.821 80.2491 109.176C74.4825 114.531 71.0793 121.957 70.7881 129.821L69.9871 151.745L45.2748 137.505C41.8977 135.416 38.1354 134.026 34.2111 133.417C30.2867 132.809 26.2802 132.995 22.429 133.964C18.5778 134.932 14.9603 136.665 11.791 139.058C8.62165 141.45 5.96499 144.455 3.97848 147.894C1.99198 151.332 0.71607 155.135 0.226397 159.076C-0.263277 163.017 0.0432552 167.016 1.12781 170.836C2.21237 174.656 4.05287 178.22 6.54023 181.316C9.02758 184.411 12.1112 186.976 15.6081 188.858L40.3205 203.128L21.7195 214.816C15.2316 219.08 10.6738 225.718 9.02398 233.304C7.37419 240.89 8.76396 248.821 12.895 255.394C17.0261 261.967 23.5693 266.659 31.1204 268.463C38.6716 270.267 46.6289 269.039 53.2848 265.042L98.4375 236.681L147.298 264.894C141.522 285.682 141.522 307.652 147.298 328.44L98.4375 356.623L53.2848 328.291C46.6289 324.295 38.6716 323.067 31.1204 324.87C23.5693 326.674 17.0261 331.366 12.895 337.939C8.76396 344.513 7.37419 352.443 9.02398 360.03C10.6738 367.616 15.2316 374.253 21.7195 378.517L40.3205 390.206L15.6081 404.446C12.2324 406.394 9.27331 408.987 6.89994 412.079C4.52657 415.17 2.78536 418.699 1.77572 422.464C0.766084 426.228 0.507797 430.154 1.0156 434.019C1.52341 437.883 2.78737 441.609 4.73531 444.985C6.68325 448.361 9.27703 451.32 12.3685 453.693C15.4601 456.067 18.9888 457.808 22.7532 458.818C26.5177 459.827 30.4441 460.085 34.3084 459.578C38.1726 459.07 41.899 457.806 45.2748 455.858L69.9575 441.588L70.7881 463.542C70.9342 467.436 71.8459 471.263 73.471 474.804C75.0961 478.346 77.4029 481.533 80.2596 484.183C83.1164 486.833 86.4671 488.894 90.1205 490.25C93.774 491.605 97.6585 492.227 101.552 492.081C105.446 491.935 109.273 491.023 112.815 489.398C116.357 487.773 119.544 485.466 122.194 482.609C124.844 479.753 126.905 476.402 128.26 472.749C129.616 469.095 130.238 465.211 130.092 461.317L128.104 408.035L176.995 379.793C192.097 395.196 211.113 406.191 231.997 411.595V468.021L184.856 492.941C177.901 496.62 172.692 502.91 170.375 510.43C168.057 517.949 168.822 526.08 172.5 533.036C176.179 539.991 182.469 545.201 189.989 547.518C197.508 549.835 205.639 549.07 212.595 545.392L231.997 535.127V563.667C231.997 571.535 235.122 579.081 240.686 584.644C246.25 590.208 253.795 593.333 261.663 593.333C269.532 593.333 277.077 590.208 282.641 584.644C288.205 579.081 291.33 571.535 291.33 563.667V535.127L310.732 545.392C317.688 549.07 325.819 549.835 333.338 547.518C340.858 545.201 347.148 539.991 350.827 533.036C354.505 526.08 355.27 517.949 352.952 510.43C350.635 502.91 345.426 496.62 338.47 492.941L291.33 468.021V411.595C312.211 406.199 331.226 395.215 346.332 379.822L395.223 408.035L393.235 461.317C393.089 465.211 393.711 469.095 395.067 472.749C396.422 476.402 398.483 479.753 401.133 482.609C403.783 485.466 406.97 487.773 410.512 489.398C414.053 491.023 417.881 491.935 421.774 492.081C425.668 492.227 429.553 491.605 433.206 490.25C436.86 488.894 440.211 486.833 443.067 484.183C445.924 481.533 448.231 478.346 449.856 474.804C451.481 471.263 452.393 467.436 452.539 463.542L453.34 441.588L478.052 455.858C481.427 457.837 485.161 459.128 489.037 459.658C492.913 460.188 496.856 459.946 500.639 458.946C504.421 457.946 507.969 456.208 511.076 453.831C514.184 451.455 516.792 448.487 518.748 445.099C520.704 441.71 521.971 437.969 522.475 434.089C522.979 430.209 522.711 426.268 521.686 422.492C520.661 418.716 518.899 415.181 516.502 412.089C514.105 408.996 511.12 406.409 507.719 404.475L483.036 390.235L501.607 378.547C508.272 374.361 513 367.699 514.753 360.027C516.505 352.355 515.138 344.301 510.952 337.636C506.767 330.972 500.105 326.244 492.433 324.491C484.761 322.738 476.706 324.105 470.042 328.291L424.889 356.653L376.028 328.469C381.811 307.672 381.811 285.691 376.028 264.894L424.889 236.681L470.042 265.042C476.706 269.228 484.761 270.595 492.433 268.842C500.105 267.09 506.767 262.361 510.952 255.697C515.138 249.033 516.505 240.979 514.753 233.306C513 225.634 508.272 218.972 501.607 214.787L483.007 203.128L507.719 188.858C511.12 186.924 514.105 184.337 516.502 181.245C518.899 178.153 520.661 174.617 521.686 170.841C522.711 167.065 522.979 163.124 522.475 159.244C521.971 155.365 520.704 151.623 518.748 148.235C516.792 144.846 514.184 141.879 511.076 139.502C507.969 137.125 504.421 135.387 500.639 134.387C496.856 133.387 492.913 133.145 489.037 133.675C485.161 134.205 481.427 135.497 478.052 137.475L453.34 151.715L452.539 129.792C452.393 125.898 451.481 122.071 449.856 118.529C448.231 114.987 445.924 111.801 443.067 109.15C440.211 106.5 436.86 104.439 433.206 103.084C429.553 101.729 425.668 101.106 421.774 101.252C417.881 101.398 414.053 102.31 410.512 103.935C406.97 105.56 403.783 107.867 401.133 110.724C398.483 113.581 396.422 116.931 395.067 120.585C393.711 124.238 393.089 128.123 393.235 132.017L395.223 185.298L346.332 213.511C331.226 198.119 312.211 187.134 291.33 181.738V125.312L338.47 100.392C345.426 96.7137 350.635 90.423 352.952 82.9038C355.27 75.3846 354.505 67.2529 350.827 60.2975C347.148 53.3421 340.858 48.1328 333.338 45.8156C325.819 43.4983 317.688 44.263 310.732 47.9413L291.33 58.206V29.6667Z" fill="#3C7A97" fill-opacity="0.08"/>
</svg>
